<mxfile host="Electron" agent="Mozilla/5.0 (X11; Linux x86_64) AppleWebKit/537.36 (KHTML, like Gecko) draw.io/26.2.2 Chrome/134.0.6998.178 Electron/35.1.2 Safari/537.36" version="26.2.2" pages="6">
  <diagram name="Page-1" id="n-uOnRQJSQYgLCGN3B7m">
    <mxGraphModel dx="2491" dy="956" grid="1" gridSize="10" guides="1" tooltips="1" connect="1" arrows="1" fold="1" page="1" pageScale="1" pageWidth="827" pageHeight="1169" math="0" shadow="0">
      <root>
        <mxCell id="0" />
        <mxCell id="1" parent="0" />
        <mxCell id="wywL6DJeVPSTO96HJTAl-1" style="edgeStyle=orthogonalEdgeStyle;rounded=0;orthogonalLoop=1;jettySize=auto;html=1;exitX=0.5;exitY=1;exitDx=0;exitDy=0;entryX=0.5;entryY=0;entryDx=0;entryDy=0;" parent="1" source="wywL6DJeVPSTO96HJTAl-3" target="wywL6DJeVPSTO96HJTAl-4" edge="1">
          <mxGeometry relative="1" as="geometry" />
        </mxCell>
        <mxCell id="wywL6DJeVPSTO96HJTAl-2" style="edgeStyle=orthogonalEdgeStyle;rounded=0;orthogonalLoop=1;jettySize=auto;html=1;exitX=0.5;exitY=1;exitDx=0;exitDy=0;entryX=0.5;entryY=0;entryDx=0;entryDy=0;" parent="1" source="wywL6DJeVPSTO96HJTAl-3" target="wywL6DJeVPSTO96HJTAl-5" edge="1">
          <mxGeometry relative="1" as="geometry" />
        </mxCell>
        <mxCell id="wywL6DJeVPSTO96HJTAl-3" value="CFSMeshData" style="rounded=1;whiteSpace=wrap;html=1;fillColor=#fff2cc;strokeColor=#d6b656;" parent="1" vertex="1">
          <mxGeometry x="240" y="240" width="120" height="40" as="geometry" />
        </mxCell>
        <mxCell id="wywL6DJeVPSTO96HJTAl-4" value="CFSMeshInfo" style="rounded=1;whiteSpace=wrap;html=1;fillColor=#fff2cc;strokeColor=#d6b656;" parent="1" vertex="1">
          <mxGeometry x="160" y="320" width="120" height="40" as="geometry" />
        </mxCell>
        <mxCell id="wywL6DJeVPSTO96HJTAl-5" value="CFSRegData" style="rounded=1;whiteSpace=wrap;html=1;fillColor=#fff2cc;strokeColor=#d6b656;" parent="1" vertex="1">
          <mxGeometry x="320" y="320" width="120" height="40" as="geometry" />
        </mxCell>
        <mxCell id="wywL6DJeVPSTO96HJTAl-6" style="edgeStyle=orthogonalEdgeStyle;rounded=0;orthogonalLoop=1;jettySize=auto;html=1;exitX=0.5;exitY=1;exitDx=0;exitDy=0;entryX=0.5;entryY=0;entryDx=0;entryDy=0;" parent="1" source="wywL6DJeVPSTO96HJTAl-8" target="wywL6DJeVPSTO96HJTAl-9" edge="1">
          <mxGeometry relative="1" as="geometry" />
        </mxCell>
        <mxCell id="wywL6DJeVPSTO96HJTAl-7" style="edgeStyle=orthogonalEdgeStyle;rounded=0;orthogonalLoop=1;jettySize=auto;html=1;exitX=0.5;exitY=1;exitDx=0;exitDy=0;entryX=0.5;entryY=0;entryDx=0;entryDy=0;" parent="1" source="wywL6DJeVPSTO96HJTAl-8" target="wywL6DJeVPSTO96HJTAl-10" edge="1">
          <mxGeometry relative="1" as="geometry" />
        </mxCell>
        <mxCell id="wywL6DJeVPSTO96HJTAl-8" value="CFSResultContainer" style="rounded=1;whiteSpace=wrap;html=1;fillColor=#fff2cc;strokeColor=#d6b656;" parent="1" vertex="1">
          <mxGeometry x="560" y="240" width="120" height="40" as="geometry" />
        </mxCell>
        <mxCell id="wywL6DJeVPSTO96HJTAl-9" value="CFSResultInfo" style="rounded=1;whiteSpace=wrap;html=1;fillColor=#fff2cc;strokeColor=#d6b656;" parent="1" vertex="1">
          <mxGeometry x="480" y="320" width="120" height="40" as="geometry" />
        </mxCell>
        <mxCell id="w_Qk7MHp3nJCzJDbJjdV-1" style="edgeStyle=orthogonalEdgeStyle;rounded=0;orthogonalLoop=1;jettySize=auto;html=1;" parent="1" source="wywL6DJeVPSTO96HJTAl-10" target="wywL6DJeVPSTO96HJTAl-9" edge="1">
          <mxGeometry relative="1" as="geometry" />
        </mxCell>
        <mxCell id="wywL6DJeVPSTO96HJTAl-10" value="CFSResultArray" style="rounded=1;whiteSpace=wrap;html=1;fillColor=#fff2cc;strokeColor=#d6b656;" parent="1" vertex="1">
          <mxGeometry x="640" y="320" width="120" height="40" as="geometry" />
        </mxCell>
        <mxCell id="0itEbcgk4ndk5ZvENqlm-25" style="edgeStyle=orthogonalEdgeStyle;rounded=0;orthogonalLoop=1;jettySize=auto;html=1;" edge="1" parent="1" source="ZYhyNqsm_ARG4VuGyyVV-1" target="0itEbcgk4ndk5ZvENqlm-23">
          <mxGeometry relative="1" as="geometry" />
        </mxCell>
        <mxCell id="0itEbcgk4ndk5ZvENqlm-26" style="edgeStyle=orthogonalEdgeStyle;rounded=0;orthogonalLoop=1;jettySize=auto;html=1;" edge="1" parent="1" source="ZYhyNqsm_ARG4VuGyyVV-1" target="0itEbcgk4ndk5ZvENqlm-22">
          <mxGeometry relative="1" as="geometry" />
        </mxCell>
        <mxCell id="0itEbcgk4ndk5ZvENqlm-27" style="edgeStyle=orthogonalEdgeStyle;rounded=0;orthogonalLoop=1;jettySize=auto;html=1;" edge="1" parent="1" source="ZYhyNqsm_ARG4VuGyyVV-1" target="0itEbcgk4ndk5ZvENqlm-2">
          <mxGeometry relative="1" as="geometry" />
        </mxCell>
        <mxCell id="0itEbcgk4ndk5ZvENqlm-36" style="edgeStyle=orthogonalEdgeStyle;rounded=0;orthogonalLoop=1;jettySize=auto;html=1;" edge="1" parent="1" source="ZYhyNqsm_ARG4VuGyyVV-1" target="wywL6DJeVPSTO96HJTAl-3">
          <mxGeometry relative="1" as="geometry" />
        </mxCell>
        <mxCell id="0itEbcgk4ndk5ZvENqlm-37" style="edgeStyle=orthogonalEdgeStyle;rounded=0;orthogonalLoop=1;jettySize=auto;html=1;" edge="1" parent="1" source="ZYhyNqsm_ARG4VuGyyVV-1" target="wywL6DJeVPSTO96HJTAl-8">
          <mxGeometry relative="1" as="geometry" />
        </mxCell>
        <mxCell id="ZYhyNqsm_ARG4VuGyyVV-1" value="pyCFS.data.io" style="rounded=1;whiteSpace=wrap;html=1;fillColor=#fff2cc;strokeColor=#d6b656;" vertex="1" parent="1">
          <mxGeometry x="-360" y="160" width="1120" height="40" as="geometry" />
        </mxCell>
        <mxCell id="0itEbcgk4ndk5ZvENqlm-31" style="edgeStyle=orthogonalEdgeStyle;rounded=0;orthogonalLoop=1;jettySize=auto;html=1;" edge="1" parent="1" source="ZYhyNqsm_ARG4VuGyyVV-3" target="0itEbcgk4ndk5ZvENqlm-22">
          <mxGeometry relative="1" as="geometry">
            <Array as="points">
              <mxPoint x="-220" y="380" />
              <mxPoint x="-220" y="260" />
            </Array>
          </mxGeometry>
        </mxCell>
        <mxCell id="ZYhyNqsm_ARG4VuGyyVV-3" value="read_file" style="rounded=1;whiteSpace=wrap;html=1;fillColor=#d5e8d4;strokeColor=#82b366;" vertex="1" parent="1">
          <mxGeometry x="-200" y="360" width="120" height="40" as="geometry" />
        </mxCell>
        <mxCell id="0itEbcgk4ndk5ZvENqlm-1" value="CFSMeshData" style="rounded=1;whiteSpace=wrap;html=1;fillColor=#f5f5f5;fontColor=#333333;strokeColor=#666666;" vertex="1" parent="1">
          <mxGeometry x="-80" y="360" width="120" height="40" as="geometry" />
        </mxCell>
        <mxCell id="0itEbcgk4ndk5ZvENqlm-28" style="edgeStyle=orthogonalEdgeStyle;rounded=0;orthogonalLoop=1;jettySize=auto;html=1;" edge="1" parent="1" source="0itEbcgk4ndk5ZvENqlm-2" target="0itEbcgk4ndk5ZvENqlm-22">
          <mxGeometry relative="1" as="geometry" />
        </mxCell>
        <mxCell id="0itEbcgk4ndk5ZvENqlm-2" value="file_info" style="rounded=1;whiteSpace=wrap;html=1;fillColor=#d5e8d4;strokeColor=#82b366;" vertex="1" parent="1">
          <mxGeometry x="-200" y="240" width="120" height="40" as="geometry" />
        </mxCell>
        <mxCell id="0itEbcgk4ndk5ZvENqlm-29" style="edgeStyle=orthogonalEdgeStyle;rounded=0;orthogonalLoop=1;jettySize=auto;html=1;" edge="1" parent="1" source="0itEbcgk4ndk5ZvENqlm-4" target="0itEbcgk4ndk5ZvENqlm-22">
          <mxGeometry relative="1" as="geometry" />
        </mxCell>
        <mxCell id="0itEbcgk4ndk5ZvENqlm-4" value="read_mesh" style="rounded=1;whiteSpace=wrap;html=1;fillColor=#d5e8d4;strokeColor=#82b366;" vertex="1" parent="1">
          <mxGeometry x="-200" y="280" width="120" height="40" as="geometry" />
        </mxCell>
        <mxCell id="0itEbcgk4ndk5ZvENqlm-5" value="CFSMeshData" style="rounded=1;whiteSpace=wrap;html=1;fillColor=#f5f5f5;fontColor=#333333;strokeColor=#666666;" vertex="1" parent="1">
          <mxGeometry x="-80" y="280" width="120" height="40" as="geometry" />
        </mxCell>
        <mxCell id="0itEbcgk4ndk5ZvENqlm-30" style="edgeStyle=orthogonalEdgeStyle;rounded=0;orthogonalLoop=1;jettySize=auto;html=1;" edge="1" parent="1" source="0itEbcgk4ndk5ZvENqlm-6" target="0itEbcgk4ndk5ZvENqlm-22">
          <mxGeometry relative="1" as="geometry">
            <Array as="points">
              <mxPoint x="-220" y="340" />
              <mxPoint x="-220" y="260" />
            </Array>
          </mxGeometry>
        </mxCell>
        <mxCell id="0itEbcgk4ndk5ZvENqlm-6" value="read_data" style="rounded=1;whiteSpace=wrap;html=1;fillColor=#d5e8d4;strokeColor=#82b366;" vertex="1" parent="1">
          <mxGeometry x="-200" y="320" width="120" height="40" as="geometry" />
        </mxCell>
        <mxCell id="0itEbcgk4ndk5ZvENqlm-7" value="CFSResultContainer" style="rounded=1;whiteSpace=wrap;html=1;fillColor=#f5f5f5;fontColor=#333333;strokeColor=#666666;" vertex="1" parent="1">
          <mxGeometry x="-80" y="320" width="120" height="40" as="geometry" />
        </mxCell>
        <mxCell id="0itEbcgk4ndk5ZvENqlm-10" value="write_file" style="rounded=1;whiteSpace=wrap;html=1;fillColor=#d5e8d4;strokeColor=#82b366;" vertex="1" parent="1">
          <mxGeometry x="-200" y="480" width="120" height="40" as="geometry" />
        </mxCell>
        <mxCell id="0itEbcgk4ndk5ZvENqlm-12" value="1: CFSResultContainer" style="rounded=1;whiteSpace=wrap;html=1;fillColor=#f5f5f5;fontColor=#333333;strokeColor=#666666;" vertex="1" parent="1">
          <mxGeometry x="-80" y="400" width="120" height="40" as="geometry" />
        </mxCell>
        <mxCell id="0itEbcgk4ndk5ZvENqlm-13" value="2: CFSResultContainer" style="rounded=1;whiteSpace=wrap;html=1;fillColor=#f5f5f5;fontColor=#333333;strokeColor=#666666;" vertex="1" parent="1">
          <mxGeometry x="-80" y="440" width="120" height="40" as="geometry" />
        </mxCell>
        <mxCell id="0itEbcgk4ndk5ZvENqlm-22" value="CFSReader" style="rounded=1;whiteSpace=wrap;html=1;fillColor=#fff2cc;strokeColor=#d6b656;" vertex="1" parent="1">
          <mxGeometry x="-360" y="240" width="120" height="40" as="geometry" />
        </mxCell>
        <mxCell id="0itEbcgk4ndk5ZvENqlm-32" style="edgeStyle=orthogonalEdgeStyle;rounded=0;orthogonalLoop=1;jettySize=auto;html=1;exitX=1;exitY=0.5;exitDx=0;exitDy=0;" edge="1" parent="1" source="0itEbcgk4ndk5ZvENqlm-10" target="0itEbcgk4ndk5ZvENqlm-23">
          <mxGeometry relative="1" as="geometry">
            <Array as="points">
              <mxPoint x="60" y="500" />
              <mxPoint x="60" y="260" />
            </Array>
          </mxGeometry>
        </mxCell>
        <mxCell id="0itEbcgk4ndk5ZvENqlm-23" value="CFSWriter" style="rounded=1;whiteSpace=wrap;html=1;fillColor=#fff2cc;strokeColor=#d6b656;" vertex="1" parent="1">
          <mxGeometry x="80" y="240" width="120" height="40" as="geometry" />
        </mxCell>
        <mxCell id="0itEbcgk4ndk5ZvENqlm-3" value="str" style="rounded=1;whiteSpace=wrap;html=1;fillColor=#f5f5f5;fontColor=#333333;strokeColor=#666666;" vertex="1" parent="1">
          <mxGeometry x="-80" y="240" width="120" height="40" as="geometry" />
        </mxCell>
      </root>
    </mxGraphModel>
  </diagram>
  <diagram name="Page-2" id="U-yMwNKFBiQ4NfxOe8Bl">
    <mxGraphModel dx="1414" dy="813" grid="1" gridSize="10" guides="1" tooltips="1" connect="1" arrows="1" fold="1" page="1" pageScale="1" pageWidth="827" pageHeight="1169" math="0" shadow="0">
      <root>
        <mxCell id="0" />
        <mxCell id="1" parent="0" />
        <mxCell id="lhw6A8s5XD66u9EGGaQC-1" style="edgeStyle=orthogonalEdgeStyle;rounded=0;orthogonalLoop=1;jettySize=auto;html=1;exitX=0.5;exitY=1;exitDx=0;exitDy=0;entryX=0.5;entryY=0;entryDx=0;entryDy=0;" parent="1" source="lhw6A8s5XD66u9EGGaQC-6" target="lhw6A8s5XD66u9EGGaQC-7" edge="1">
          <mxGeometry relative="1" as="geometry" />
        </mxCell>
        <mxCell id="lhw6A8s5XD66u9EGGaQC-2" style="edgeStyle=orthogonalEdgeStyle;rounded=0;orthogonalLoop=1;jettySize=auto;html=1;exitX=0.5;exitY=1;exitDx=0;exitDy=0;entryX=0.5;entryY=0;entryDx=0;entryDy=0;" parent="1" source="lhw6A8s5XD66u9EGGaQC-6" target="lhw6A8s5XD66u9EGGaQC-8" edge="1">
          <mxGeometry relative="1" as="geometry" />
        </mxCell>
        <mxCell id="lhw6A8s5XD66u9EGGaQC-3" style="edgeStyle=orthogonalEdgeStyle;rounded=0;orthogonalLoop=1;jettySize=auto;html=1;exitX=0.5;exitY=1;exitDx=0;exitDy=0;entryX=0.5;entryY=0;entryDx=0;entryDy=0;" parent="1" source="lhw6A8s5XD66u9EGGaQC-6" target="lhw6A8s5XD66u9EGGaQC-13" edge="1">
          <mxGeometry relative="1" as="geometry" />
        </mxCell>
        <mxCell id="lhw6A8s5XD66u9EGGaQC-4" style="edgeStyle=orthogonalEdgeStyle;rounded=0;orthogonalLoop=1;jettySize=auto;html=1;exitX=0.5;exitY=1;exitDx=0;exitDy=0;entryX=0.5;entryY=0;entryDx=0;entryDy=0;" parent="1" source="lhw6A8s5XD66u9EGGaQC-6" target="lhw6A8s5XD66u9EGGaQC-14" edge="1">
          <mxGeometry relative="1" as="geometry" />
        </mxCell>
        <mxCell id="lhw6A8s5XD66u9EGGaQC-5" style="edgeStyle=orthogonalEdgeStyle;rounded=0;orthogonalLoop=1;jettySize=auto;html=1;exitX=0.5;exitY=1;exitDx=0;exitDy=0;entryX=0.5;entryY=0;entryDx=0;entryDy=0;" parent="1" source="lhw6A8s5XD66u9EGGaQC-6" target="lhw6A8s5XD66u9EGGaQC-15" edge="1">
          <mxGeometry relative="1" as="geometry" />
        </mxCell>
        <mxCell id="lhw6A8s5XD66u9EGGaQC-6" value="CFSMeshData object" style="rounded=1;whiteSpace=wrap;html=1;fillColor=#fff2cc;strokeColor=#d6b656;" parent="1" vertex="1">
          <mxGeometry x="120" y="280" width="760" height="40" as="geometry" />
        </mxCell>
        <mxCell id="lhw6A8s5XD66u9EGGaQC-7" value="MeshInfo" style="rounded=1;whiteSpace=wrap;html=1;fillColor=#ffe6cc;strokeColor=#d79b00;" parent="1" vertex="1">
          <mxGeometry x="120" y="360" width="120" height="40" as="geometry" />
        </mxCell>
        <mxCell id="lhw6A8s5XD66u9EGGaQC-8" value="Regions" style="rounded=1;whiteSpace=wrap;html=1;fillColor=#ffe6cc;strokeColor=#d79b00;" parent="1" vertex="1">
          <mxGeometry x="280" y="360" width="120" height="40" as="geometry" />
        </mxCell>
        <mxCell id="lhw6A8s5XD66u9EGGaQC-9" value="CFSMeshInfo" style="rounded=1;whiteSpace=wrap;html=1;fillColor=#f5f5f5;fontColor=#333333;strokeColor=#666666;" parent="1" vertex="1">
          <mxGeometry x="120" y="400" width="120" height="40" as="geometry" />
        </mxCell>
        <mxCell id="lhw6A8s5XD66u9EGGaQC-10" value="CFSRegData" style="rounded=1;whiteSpace=wrap;html=1;fillColor=#f5f5f5;fontColor=#333333;strokeColor=#666666;" parent="1" vertex="1">
          <mxGeometry x="280" y="400" width="120" height="40" as="geometry" />
        </mxCell>
        <mxCell id="lhw6A8s5XD66u9EGGaQC-11" value="CFSRegData" style="rounded=1;whiteSpace=wrap;html=1;fillColor=#f5f5f5;fontColor=#333333;strokeColor=#666666;" parent="1" vertex="1">
          <mxGeometry x="280" y="440" width="120" height="40" as="geometry" />
        </mxCell>
        <mxCell id="lhw6A8s5XD66u9EGGaQC-12" value="CFSRegData" style="rounded=1;whiteSpace=wrap;html=1;fillColor=#f5f5f5;fontColor=#333333;strokeColor=#666666;" parent="1" vertex="1">
          <mxGeometry x="280" y="480" width="120" height="40" as="geometry" />
        </mxCell>
        <mxCell id="lhw6A8s5XD66u9EGGaQC-13" value="Coordinates" style="rounded=1;whiteSpace=wrap;html=1;fillColor=#ffe6cc;strokeColor=#d79b00;" parent="1" vertex="1">
          <mxGeometry x="440" y="360" width="120" height="40" as="geometry" />
        </mxCell>
        <mxCell id="lhw6A8s5XD66u9EGGaQC-14" value="Connectivity" style="rounded=1;whiteSpace=wrap;html=1;fillColor=#ffe6cc;strokeColor=#d79b00;" parent="1" vertex="1">
          <mxGeometry x="600" y="360" width="120" height="40" as="geometry" />
        </mxCell>
        <mxCell id="lhw6A8s5XD66u9EGGaQC-15" value="Types" style="rounded=1;whiteSpace=wrap;html=1;fillColor=#ffe6cc;strokeColor=#d79b00;" parent="1" vertex="1">
          <mxGeometry x="760" y="360" width="120" height="40" as="geometry" />
        </mxCell>
        <mxCell id="lhw6A8s5XD66u9EGGaQC-16" value="numpy.ndarray" style="rounded=1;whiteSpace=wrap;html=1;fillColor=#f5f5f5;fontColor=#333333;strokeColor=#666666;" parent="1" vertex="1">
          <mxGeometry x="440" y="400" width="120" height="40" as="geometry" />
        </mxCell>
        <mxCell id="lhw6A8s5XD66u9EGGaQC-17" value="numpy.ndarray" style="rounded=1;whiteSpace=wrap;html=1;fillColor=#f5f5f5;fontColor=#333333;strokeColor=#666666;" parent="1" vertex="1">
          <mxGeometry x="600" y="400" width="120" height="40" as="geometry" />
        </mxCell>
        <mxCell id="lhw6A8s5XD66u9EGGaQC-18" value="numpy.ndarray" style="rounded=1;whiteSpace=wrap;html=1;fillColor=#f5f5f5;fontColor=#333333;strokeColor=#666666;" parent="1" vertex="1">
          <mxGeometry x="760" y="400" width="120" height="40" as="geometry" />
        </mxCell>
      </root>
    </mxGraphModel>
  </diagram>
  <diagram name="Page-3" id="O30-roGnCw6TU8FcY0AY">
    <mxGraphModel dx="1414" dy="813" grid="1" gridSize="10" guides="1" tooltips="1" connect="1" arrows="1" fold="1" page="1" pageScale="1" pageWidth="827" pageHeight="1169" math="0" shadow="0">
      <root>
        <mxCell id="0" />
        <mxCell id="1" parent="0" />
        <mxCell id="2R4-ejPmuQ6YGznsxVQb-1" style="edgeStyle=orthogonalEdgeStyle;rounded=0;orthogonalLoop=1;jettySize=auto;html=1;exitX=0.5;exitY=1;exitDx=0;exitDy=0;entryX=0.5;entryY=0;entryDx=0;entryDy=0;" parent="1" source="2R4-ejPmuQ6YGznsxVQb-6" target="2R4-ejPmuQ6YGznsxVQb-7" edge="1">
          <mxGeometry relative="1" as="geometry" />
        </mxCell>
        <mxCell id="2R4-ejPmuQ6YGznsxVQb-2" style="edgeStyle=orthogonalEdgeStyle;rounded=0;orthogonalLoop=1;jettySize=auto;html=1;exitX=0.5;exitY=1;exitDx=0;exitDy=0;entryX=0.5;entryY=0;entryDx=0;entryDy=0;" parent="1" source="2R4-ejPmuQ6YGznsxVQb-6" target="2R4-ejPmuQ6YGznsxVQb-8" edge="1">
          <mxGeometry relative="1" as="geometry" />
        </mxCell>
        <mxCell id="2R4-ejPmuQ6YGznsxVQb-3" style="edgeStyle=orthogonalEdgeStyle;rounded=0;orthogonalLoop=1;jettySize=auto;html=1;exitX=0.5;exitY=1;exitDx=0;exitDy=0;entryX=0.5;entryY=0;entryDx=0;entryDy=0;" parent="1" source="2R4-ejPmuQ6YGznsxVQb-6" target="2R4-ejPmuQ6YGznsxVQb-9" edge="1">
          <mxGeometry relative="1" as="geometry" />
        </mxCell>
        <mxCell id="2R4-ejPmuQ6YGznsxVQb-4" style="edgeStyle=orthogonalEdgeStyle;rounded=0;orthogonalLoop=1;jettySize=auto;html=1;exitX=0.5;exitY=1;exitDx=0;exitDy=0;entryX=0.5;entryY=0;entryDx=0;entryDy=0;" parent="1" source="2R4-ejPmuQ6YGznsxVQb-6" target="2R4-ejPmuQ6YGznsxVQb-10" edge="1">
          <mxGeometry relative="1" as="geometry" />
        </mxCell>
        <mxCell id="2R4-ejPmuQ6YGznsxVQb-5" style="edgeStyle=orthogonalEdgeStyle;rounded=0;orthogonalLoop=1;jettySize=auto;html=1;exitX=0.5;exitY=1;exitDx=0;exitDy=0;entryX=0.5;entryY=0;entryDx=0;entryDy=0;" parent="1" source="2R4-ejPmuQ6YGznsxVQb-6" target="2R4-ejPmuQ6YGznsxVQb-11" edge="1">
          <mxGeometry relative="1" as="geometry" />
        </mxCell>
        <mxCell id="2R4-ejPmuQ6YGznsxVQb-6" value="CFSRegData object" style="rounded=1;whiteSpace=wrap;html=1;fillColor=#fff2cc;strokeColor=#d6b656;" parent="1" vertex="1">
          <mxGeometry x="120" y="520" width="760" height="40" as="geometry" />
        </mxCell>
        <mxCell id="2R4-ejPmuQ6YGznsxVQb-7" value="Name" style="rounded=1;whiteSpace=wrap;html=1;fillColor=#ffe6cc;strokeColor=#d79b00;" parent="1" vertex="1">
          <mxGeometry x="120" y="600" width="120" height="40" as="geometry" />
        </mxCell>
        <mxCell id="2R4-ejPmuQ6YGznsxVQb-8" value="Nodes" style="rounded=1;whiteSpace=wrap;html=1;fillColor=#ffe6cc;strokeColor=#d79b00;" parent="1" vertex="1">
          <mxGeometry x="280" y="600" width="120" height="40" as="geometry" />
        </mxCell>
        <mxCell id="2R4-ejPmuQ6YGznsxVQb-9" value="Elements" style="rounded=1;whiteSpace=wrap;html=1;fillColor=#ffe6cc;strokeColor=#d79b00;" parent="1" vertex="1">
          <mxGeometry x="440" y="600" width="120" height="40" as="geometry" />
        </mxCell>
        <mxCell id="2R4-ejPmuQ6YGznsxVQb-10" value="Dimension" style="rounded=1;whiteSpace=wrap;html=1;fillColor=#ffe6cc;strokeColor=#d79b00;" parent="1" vertex="1">
          <mxGeometry x="600" y="600" width="120" height="40" as="geometry" />
        </mxCell>
        <mxCell id="2R4-ejPmuQ6YGznsxVQb-11" value="IsGroup" style="rounded=1;whiteSpace=wrap;html=1;fillColor=#ffe6cc;strokeColor=#d79b00;" parent="1" vertex="1">
          <mxGeometry x="760" y="600" width="120" height="40" as="geometry" />
        </mxCell>
        <mxCell id="2R4-ejPmuQ6YGznsxVQb-12" value="numpy.ndarray" style="rounded=1;whiteSpace=wrap;html=1;fillColor=#f5f5f5;fontColor=#333333;strokeColor=#666666;" parent="1" vertex="1">
          <mxGeometry x="280" y="640" width="120" height="40" as="geometry" />
        </mxCell>
        <mxCell id="2R4-ejPmuQ6YGznsxVQb-13" value="numpy.ndarray" style="rounded=1;whiteSpace=wrap;html=1;fillColor=#f5f5f5;fontColor=#333333;strokeColor=#666666;" parent="1" vertex="1">
          <mxGeometry x="440" y="640" width="120" height="40" as="geometry" />
        </mxCell>
        <mxCell id="2R4-ejPmuQ6YGznsxVQb-14" value="int" style="rounded=1;whiteSpace=wrap;html=1;fillColor=#f5f5f5;fontColor=#333333;strokeColor=#666666;" parent="1" vertex="1">
          <mxGeometry x="600" y="640" width="120" height="40" as="geometry" />
        </mxCell>
        <mxCell id="2R4-ejPmuQ6YGznsxVQb-15" value="bool" style="rounded=1;whiteSpace=wrap;html=1;fillColor=#f5f5f5;fontColor=#333333;strokeColor=#666666;" parent="1" vertex="1">
          <mxGeometry x="760" y="640" width="120" height="40" as="geometry" />
        </mxCell>
        <mxCell id="2R4-ejPmuQ6YGznsxVQb-16" value="str" style="rounded=1;whiteSpace=wrap;html=1;fillColor=#f5f5f5;fontColor=#333333;strokeColor=#666666;" parent="1" vertex="1">
          <mxGeometry x="120" y="640" width="120" height="40" as="geometry" />
        </mxCell>
      </root>
    </mxGraphModel>
  </diagram>
  <diagram name="Page-4" id="snGbXUzyqROLpXZz_zbO">
    <mxGraphModel dx="1414" dy="-356" grid="1" gridSize="10" guides="1" tooltips="1" connect="1" arrows="1" fold="1" page="1" pageScale="1" pageWidth="827" pageHeight="1169" math="0" shadow="0">
      <root>
        <mxCell id="0" />
        <mxCell id="1" parent="0" />
        <mxCell id="rZRJt_9YZqW8NxeU_I9Z-1" style="edgeStyle=orthogonalEdgeStyle;rounded=0;orthogonalLoop=1;jettySize=auto;html=1;exitX=0.5;exitY=1;exitDx=0;exitDy=0;entryX=0.5;entryY=0;entryDx=0;entryDy=0;" parent="1" source="rZRJt_9YZqW8NxeU_I9Z-6" target="rZRJt_9YZqW8NxeU_I9Z-9" edge="1">
          <mxGeometry relative="1" as="geometry" />
        </mxCell>
        <mxCell id="rZRJt_9YZqW8NxeU_I9Z-2" style="edgeStyle=orthogonalEdgeStyle;rounded=0;orthogonalLoop=1;jettySize=auto;html=1;exitX=0.5;exitY=1;exitDx=0;exitDy=0;entryX=0.5;entryY=0;entryDx=0;entryDy=0;" parent="1" source="rZRJt_9YZqW8NxeU_I9Z-6" target="rZRJt_9YZqW8NxeU_I9Z-8" edge="1">
          <mxGeometry relative="1" as="geometry" />
        </mxCell>
        <mxCell id="rZRJt_9YZqW8NxeU_I9Z-3" style="edgeStyle=orthogonalEdgeStyle;rounded=0;orthogonalLoop=1;jettySize=auto;html=1;exitX=0.5;exitY=1;exitDx=0;exitDy=0;" parent="1" source="rZRJt_9YZqW8NxeU_I9Z-6" target="rZRJt_9YZqW8NxeU_I9Z-10" edge="1">
          <mxGeometry relative="1" as="geometry" />
        </mxCell>
        <mxCell id="rZRJt_9YZqW8NxeU_I9Z-4" style="edgeStyle=orthogonalEdgeStyle;rounded=0;orthogonalLoop=1;jettySize=auto;html=1;exitX=0.5;exitY=1;exitDx=0;exitDy=0;" parent="1" source="rZRJt_9YZqW8NxeU_I9Z-6" target="rZRJt_9YZqW8NxeU_I9Z-11" edge="1">
          <mxGeometry relative="1" as="geometry" />
        </mxCell>
        <mxCell id="rZRJt_9YZqW8NxeU_I9Z-5" style="edgeStyle=orthogonalEdgeStyle;rounded=0;orthogonalLoop=1;jettySize=auto;html=1;exitX=0.5;exitY=1;exitDx=0;exitDy=0;entryX=0.5;entryY=0;entryDx=0;entryDy=0;" parent="1" source="rZRJt_9YZqW8NxeU_I9Z-6" target="rZRJt_9YZqW8NxeU_I9Z-12" edge="1">
          <mxGeometry relative="1" as="geometry" />
        </mxCell>
        <mxCell id="rZRJt_9YZqW8NxeU_I9Z-6" value="CFSResultContainer object" style="rounded=1;whiteSpace=wrap;html=1;fillColor=#fff2cc;strokeColor=#d6b656;" parent="1" vertex="1">
          <mxGeometry x="40" y="1280" width="760" height="40" as="geometry" />
        </mxCell>
        <mxCell id="rZRJt_9YZqW8NxeU_I9Z-7" value="cfs_analysis_type" style="rounded=1;whiteSpace=wrap;html=1;fillColor=#f5f5f5;fontColor=#333333;strokeColor=#666666;" parent="1" vertex="1">
          <mxGeometry x="200" y="1400" width="120" height="40" as="geometry" />
        </mxCell>
        <mxCell id="rZRJt_9YZqW8NxeU_I9Z-8" value="MultiStepID" style="rounded=1;whiteSpace=wrap;html=1;fillColor=#e1d5e7;strokeColor=#9673a6;" parent="1" vertex="1">
          <mxGeometry x="360" y="1360" width="120" height="40" as="geometry" />
        </mxCell>
        <mxCell id="rZRJt_9YZqW8NxeU_I9Z-9" value="AnalysisType" style="rounded=1;whiteSpace=wrap;html=1;fillColor=#e1d5e7;strokeColor=#9673a6;" parent="1" vertex="1">
          <mxGeometry x="200" y="1360" width="120" height="40" as="geometry" />
        </mxCell>
        <mxCell id="rZRJt_9YZqW8NxeU_I9Z-10" value="Data" style="rounded=1;whiteSpace=wrap;html=1;fillColor=#ffe6cc;strokeColor=#d79b00;" parent="1" vertex="1">
          <mxGeometry x="520" y="1360" width="120" height="40" as="geometry" />
        </mxCell>
        <mxCell id="rZRJt_9YZqW8NxeU_I9Z-11" value="ResultInfo" style="rounded=1;whiteSpace=wrap;html=1;fillColor=#e1d5e7;strokeColor=#9673a6;" parent="1" vertex="1">
          <mxGeometry x="680" y="1360" width="120" height="40" as="geometry" />
        </mxCell>
        <mxCell id="rZRJt_9YZqW8NxeU_I9Z-12" value="StepValues" style="rounded=1;whiteSpace=wrap;html=1;fillColor=#e1d5e7;strokeColor=#9673a6;" parent="1" vertex="1">
          <mxGeometry x="40" y="1360" width="120" height="40" as="geometry" />
        </mxCell>
        <mxCell id="rZRJt_9YZqW8NxeU_I9Z-13" value="int" style="rounded=1;whiteSpace=wrap;html=1;fillColor=#f5f5f5;fontColor=#333333;strokeColor=#666666;" parent="1" vertex="1">
          <mxGeometry x="360" y="1400" width="120" height="40" as="geometry" />
        </mxCell>
        <mxCell id="rZRJt_9YZqW8NxeU_I9Z-14" value="numpy.ndarray" style="rounded=1;whiteSpace=wrap;html=1;fillColor=#f5f5f5;fontColor=#333333;strokeColor=#666666;" parent="1" vertex="1">
          <mxGeometry x="40" y="1400" width="120" height="40" as="geometry" />
        </mxCell>
        <mxCell id="ujUBKD78GGJjpfX00JOk-1" style="edgeStyle=orthogonalEdgeStyle;rounded=0;orthogonalLoop=1;jettySize=auto;html=1;entryX=0;entryY=0.5;entryDx=0;entryDy=0;" parent="1" source="rZRJt_9YZqW8NxeU_I9Z-15" target="rZRJt_9YZqW8NxeU_I9Z-16" edge="1">
          <mxGeometry relative="1" as="geometry" />
        </mxCell>
        <mxCell id="iOogUC2k497TPGEwJ-oi-8" style="edgeStyle=orthogonalEdgeStyle;rounded=0;orthogonalLoop=1;jettySize=auto;html=1;" edge="1" parent="1" source="rZRJt_9YZqW8NxeU_I9Z-15" target="rZRJt_9YZqW8NxeU_I9Z-13">
          <mxGeometry relative="1" as="geometry">
            <Array as="points">
              <mxPoint x="500" y="1420" />
              <mxPoint x="500" y="1580" />
              <mxPoint x="420" y="1580" />
            </Array>
          </mxGeometry>
        </mxCell>
        <mxCell id="rZRJt_9YZqW8NxeU_I9Z-15" value="CFSResultArray" style="rounded=1;whiteSpace=wrap;html=1;fillColor=#f5f5f5;fontColor=#333333;strokeColor=#666666;" parent="1" vertex="1">
          <mxGeometry x="520" y="1400" width="120" height="40" as="geometry" />
        </mxCell>
        <mxCell id="rZRJt_9YZqW8NxeU_I9Z-16" value="CFSResultInfo" style="rounded=1;whiteSpace=wrap;html=1;fillColor=#f5f5f5;fontColor=#333333;strokeColor=#666666;" parent="1" vertex="1">
          <mxGeometry x="680" y="1400" width="120" height="40" as="geometry" />
        </mxCell>
        <mxCell id="ujUBKD78GGJjpfX00JOk-2" style="edgeStyle=orthogonalEdgeStyle;rounded=0;orthogonalLoop=1;jettySize=auto;html=1;" parent="1" source="rZRJt_9YZqW8NxeU_I9Z-17" target="rZRJt_9YZqW8NxeU_I9Z-19" edge="1">
          <mxGeometry relative="1" as="geometry" />
        </mxCell>
        <mxCell id="iOogUC2k497TPGEwJ-oi-9" style="edgeStyle=orthogonalEdgeStyle;rounded=0;orthogonalLoop=1;jettySize=auto;html=1;" edge="1" parent="1" source="rZRJt_9YZqW8NxeU_I9Z-17" target="rZRJt_9YZqW8NxeU_I9Z-13">
          <mxGeometry relative="1" as="geometry">
            <Array as="points">
              <mxPoint x="500" y="1460" />
              <mxPoint x="500" y="1580" />
              <mxPoint x="420" y="1580" />
            </Array>
          </mxGeometry>
        </mxCell>
        <mxCell id="iOogUC2k497TPGEwJ-oi-12" style="edgeStyle=orthogonalEdgeStyle;rounded=0;orthogonalLoop=1;jettySize=auto;html=1;" edge="1" parent="1" source="rZRJt_9YZqW8NxeU_I9Z-17" target="iOogUC2k497TPGEwJ-oi-3">
          <mxGeometry relative="1" as="geometry">
            <Array as="points">
              <mxPoint x="500" y="1460" />
              <mxPoint x="500" y="1580" />
              <mxPoint x="180" y="1580" />
            </Array>
          </mxGeometry>
        </mxCell>
        <mxCell id="rZRJt_9YZqW8NxeU_I9Z-17" value="CFSResultArray" style="rounded=1;whiteSpace=wrap;html=1;fillColor=#f5f5f5;fontColor=#333333;strokeColor=#666666;" parent="1" vertex="1">
          <mxGeometry x="520" y="1440" width="120" height="40" as="geometry" />
        </mxCell>
        <mxCell id="ujUBKD78GGJjpfX00JOk-3" style="edgeStyle=orthogonalEdgeStyle;rounded=0;orthogonalLoop=1;jettySize=auto;html=1;" parent="1" source="rZRJt_9YZqW8NxeU_I9Z-18" target="rZRJt_9YZqW8NxeU_I9Z-20" edge="1">
          <mxGeometry relative="1" as="geometry" />
        </mxCell>
        <mxCell id="iOogUC2k497TPGEwJ-oi-10" style="edgeStyle=orthogonalEdgeStyle;rounded=0;orthogonalLoop=1;jettySize=auto;html=1;" edge="1" parent="1" source="rZRJt_9YZqW8NxeU_I9Z-18" target="rZRJt_9YZqW8NxeU_I9Z-13">
          <mxGeometry relative="1" as="geometry">
            <Array as="points">
              <mxPoint x="500" y="1500" />
              <mxPoint x="500" y="1580" />
              <mxPoint x="420" y="1580" />
            </Array>
          </mxGeometry>
        </mxCell>
        <mxCell id="iOogUC2k497TPGEwJ-oi-11" style="edgeStyle=orthogonalEdgeStyle;rounded=0;orthogonalLoop=1;jettySize=auto;html=1;" edge="1" parent="1" source="rZRJt_9YZqW8NxeU_I9Z-18" target="iOogUC2k497TPGEwJ-oi-1">
          <mxGeometry relative="1" as="geometry">
            <Array as="points">
              <mxPoint x="500" y="1500" />
              <mxPoint x="500" y="1580" />
              <mxPoint x="340" y="1580" />
            </Array>
          </mxGeometry>
        </mxCell>
        <mxCell id="iOogUC2k497TPGEwJ-oi-13" style="edgeStyle=orthogonalEdgeStyle;rounded=0;orthogonalLoop=1;jettySize=auto;html=1;" edge="1" parent="1" source="rZRJt_9YZqW8NxeU_I9Z-18" target="rZRJt_9YZqW8NxeU_I9Z-7">
          <mxGeometry relative="1" as="geometry">
            <Array as="points">
              <mxPoint x="500" y="1500" />
              <mxPoint x="500" y="1580" />
              <mxPoint x="260" y="1580" />
            </Array>
          </mxGeometry>
        </mxCell>
        <mxCell id="iOogUC2k497TPGEwJ-oi-14" style="edgeStyle=orthogonalEdgeStyle;rounded=0;orthogonalLoop=1;jettySize=auto;html=1;" edge="1" parent="1" source="rZRJt_9YZqW8NxeU_I9Z-18" target="rZRJt_9YZqW8NxeU_I9Z-14">
          <mxGeometry relative="1" as="geometry">
            <Array as="points">
              <mxPoint x="500" y="1500" />
              <mxPoint x="500" y="1580" />
              <mxPoint x="100" y="1580" />
            </Array>
          </mxGeometry>
        </mxCell>
        <mxCell id="rZRJt_9YZqW8NxeU_I9Z-18" value="CFSResultArray" style="rounded=1;whiteSpace=wrap;html=1;fillColor=#f5f5f5;fontColor=#333333;strokeColor=#666666;" parent="1" vertex="1">
          <mxGeometry x="520" y="1480" width="120" height="40" as="geometry" />
        </mxCell>
        <mxCell id="rZRJt_9YZqW8NxeU_I9Z-19" value="CFSResultInfo" style="rounded=1;whiteSpace=wrap;html=1;fillColor=#f5f5f5;fontColor=#333333;strokeColor=#666666;" parent="1" vertex="1">
          <mxGeometry x="680" y="1440" width="120" height="40" as="geometry" />
        </mxCell>
        <mxCell id="rZRJt_9YZqW8NxeU_I9Z-20" value="CFSResultInfo" style="rounded=1;whiteSpace=wrap;html=1;fillColor=#f5f5f5;fontColor=#333333;strokeColor=#666666;" parent="1" vertex="1">
          <mxGeometry x="680" y="1480" width="120" height="40" as="geometry" />
        </mxCell>
        <mxCell id="iOogUC2k497TPGEwJ-oi-1" value="List[str]" style="rounded=1;whiteSpace=wrap;html=1;fillColor=#f5f5f5;fontColor=#333333;strokeColor=#666666;" vertex="1" parent="1">
          <mxGeometry x="280" y="1500" width="120" height="40" as="geometry" />
        </mxCell>
        <mxCell id="iOogUC2k497TPGEwJ-oi-2" value="Regions" style="rounded=1;whiteSpace=wrap;html=1;fillColor=#e1d5e7;strokeColor=#9673a6;" vertex="1" parent="1">
          <mxGeometry x="280" y="1460" width="120" height="40" as="geometry" />
        </mxCell>
        <mxCell id="iOogUC2k497TPGEwJ-oi-3" value="List[str]" style="rounded=1;whiteSpace=wrap;html=1;fillColor=#f5f5f5;fontColor=#333333;strokeColor=#666666;" vertex="1" parent="1">
          <mxGeometry x="120" y="1500" width="120" height="40" as="geometry" />
        </mxCell>
        <mxCell id="iOogUC2k497TPGEwJ-oi-4" value="Quantities" style="rounded=1;whiteSpace=wrap;html=1;fillColor=#e1d5e7;strokeColor=#9673a6;" vertex="1" parent="1">
          <mxGeometry x="120" y="1460" width="120" height="40" as="geometry" />
        </mxCell>
      </root>
    </mxGraphModel>
  </diagram>
  <diagram name="Page-5" id="ncE-Dfe5Ryyy5GU6lVYT">
    <mxGraphModel dx="1414" dy="-356" grid="1" gridSize="10" guides="1" tooltips="1" connect="1" arrows="1" fold="1" page="1" pageScale="1" pageWidth="827" pageHeight="1169" math="0" shadow="0">
      <root>
        <mxCell id="0" />
        <mxCell id="1" parent="0" />
        <mxCell id="7zzRHOXIroybPSx4t4YR-43" style="edgeStyle=orthogonalEdgeStyle;rounded=0;orthogonalLoop=1;jettySize=auto;html=1;exitX=0.5;exitY=1;exitDx=0;exitDy=0;entryX=0.5;entryY=0;entryDx=0;entryDy=0;" parent="1" source="7zzRHOXIroybPSx4t4YR-6" target="7zzRHOXIroybPSx4t4YR-33" edge="1">
          <mxGeometry relative="1" as="geometry">
            <Array as="points">
              <mxPoint x="580" y="1260" />
              <mxPoint x="940" y="1260" />
            </Array>
          </mxGeometry>
        </mxCell>
        <mxCell id="7zzRHOXIroybPSx4t4YR-45" style="edgeStyle=orthogonalEdgeStyle;rounded=0;orthogonalLoop=1;jettySize=auto;html=1;exitX=0.5;exitY=1;exitDx=0;exitDy=0;entryX=0.5;entryY=0;entryDx=0;entryDy=0;" parent="1" source="7zzRHOXIroybPSx4t4YR-6" target="7zzRHOXIroybPSx4t4YR-35" edge="1">
          <mxGeometry relative="1" as="geometry">
            <Array as="points">
              <mxPoint x="580" y="1260" />
              <mxPoint x="220" y="1260" />
            </Array>
          </mxGeometry>
        </mxCell>
        <mxCell id="7zzRHOXIroybPSx4t4YR-46" style="edgeStyle=orthogonalEdgeStyle;rounded=0;orthogonalLoop=1;jettySize=auto;html=1;exitX=0.5;exitY=1;exitDx=0;exitDy=0;entryX=0.5;entryY=0;entryDx=0;entryDy=0;" parent="1" source="7zzRHOXIroybPSx4t4YR-6" target="7zzRHOXIroybPSx4t4YR-37" edge="1">
          <mxGeometry relative="1" as="geometry">
            <Array as="points">
              <mxPoint x="580" y="1260" />
              <mxPoint x="380" y="1260" />
            </Array>
          </mxGeometry>
        </mxCell>
        <mxCell id="7zzRHOXIroybPSx4t4YR-49" style="edgeStyle=orthogonalEdgeStyle;rounded=0;orthogonalLoop=1;jettySize=auto;html=1;exitX=0.5;exitY=1;exitDx=0;exitDy=0;entryX=0.5;entryY=0;entryDx=0;entryDy=0;" parent="1" source="7zzRHOXIroybPSx4t4YR-6" target="7zzRHOXIroybPSx4t4YR-9" edge="1">
          <mxGeometry relative="1" as="geometry" />
        </mxCell>
        <mxCell id="7zzRHOXIroybPSx4t4YR-50" style="edgeStyle=orthogonalEdgeStyle;rounded=0;orthogonalLoop=1;jettySize=auto;html=1;exitX=0.5;exitY=1;exitDx=0;exitDy=0;entryX=0.5;entryY=0;entryDx=0;entryDy=0;" parent="1" source="7zzRHOXIroybPSx4t4YR-6" target="7zzRHOXIroybPSx4t4YR-8" edge="1">
          <mxGeometry relative="1" as="geometry" />
        </mxCell>
        <mxCell id="7zzRHOXIroybPSx4t4YR-51" style="edgeStyle=orthogonalEdgeStyle;rounded=0;orthogonalLoop=1;jettySize=auto;html=1;exitX=0.5;exitY=1;exitDx=0;exitDy=0;entryX=0.5;entryY=0;entryDx=0;entryDy=0;" parent="1" source="7zzRHOXIroybPSx4t4YR-6" target="7zzRHOXIroybPSx4t4YR-10" edge="1">
          <mxGeometry relative="1" as="geometry" />
        </mxCell>
        <mxCell id="7zzRHOXIroybPSx4t4YR-52" style="edgeStyle=orthogonalEdgeStyle;rounded=0;orthogonalLoop=1;jettySize=auto;html=1;exitX=0.5;exitY=1;exitDx=0;exitDy=0;entryX=0.5;entryY=0;entryDx=0;entryDy=0;" parent="1" source="7zzRHOXIroybPSx4t4YR-6" target="7zzRHOXIroybPSx4t4YR-23" edge="1">
          <mxGeometry relative="1" as="geometry" />
        </mxCell>
        <mxCell id="7zzRHOXIroybPSx4t4YR-53" style="edgeStyle=orthogonalEdgeStyle;rounded=0;orthogonalLoop=1;jettySize=auto;html=1;exitX=0.5;exitY=1;exitDx=0;exitDy=0;entryX=0.5;entryY=0;entryDx=0;entryDy=0;" parent="1" source="7zzRHOXIroybPSx4t4YR-6" target="7zzRHOXIroybPSx4t4YR-25" edge="1">
          <mxGeometry relative="1" as="geometry" />
        </mxCell>
        <mxCell id="nPS9NGVsApgSVucQxBJS-3" style="edgeStyle=orthogonalEdgeStyle;rounded=0;orthogonalLoop=1;jettySize=auto;html=1;" parent="1" source="7zzRHOXIroybPSx4t4YR-6" target="nPS9NGVsApgSVucQxBJS-1" edge="1">
          <mxGeometry relative="1" as="geometry">
            <Array as="points">
              <mxPoint x="580" y="1260" />
              <mxPoint x="1020" y="1260" />
            </Array>
          </mxGeometry>
        </mxCell>
        <mxCell id="nPS9NGVsApgSVucQxBJS-6" style="edgeStyle=orthogonalEdgeStyle;rounded=0;orthogonalLoop=1;jettySize=auto;html=1;" parent="1" source="7zzRHOXIroybPSx4t4YR-6" target="nPS9NGVsApgSVucQxBJS-4" edge="1">
          <mxGeometry relative="1" as="geometry">
            <Array as="points">
              <mxPoint x="580" y="1260" />
              <mxPoint x="860" y="1260" />
            </Array>
          </mxGeometry>
        </mxCell>
        <mxCell id="4SoNAwPLv0iioXlWI00t-11" style="edgeStyle=orthogonalEdgeStyle;rounded=0;orthogonalLoop=1;jettySize=auto;html=1;" edge="1" parent="1" source="7zzRHOXIroybPSx4t4YR-6" target="7zzRHOXIroybPSx4t4YR-39">
          <mxGeometry relative="1" as="geometry">
            <Array as="points">
              <mxPoint x="580" y="1260" />
              <mxPoint x="540" y="1260" />
            </Array>
          </mxGeometry>
        </mxCell>
        <mxCell id="4SoNAwPLv0iioXlWI00t-12" style="edgeStyle=orthogonalEdgeStyle;rounded=0;orthogonalLoop=1;jettySize=auto;html=1;entryX=0.5;entryY=0;entryDx=0;entryDy=0;" edge="1" parent="1" source="7zzRHOXIroybPSx4t4YR-6" target="7zzRHOXIroybPSx4t4YR-41">
          <mxGeometry relative="1" as="geometry">
            <Array as="points">
              <mxPoint x="580" y="1260" />
              <mxPoint x="700" y="1260" />
            </Array>
          </mxGeometry>
        </mxCell>
        <mxCell id="7zzRHOXIroybPSx4t4YR-6" value="CFSResultArray object" style="rounded=1;whiteSpace=wrap;html=1;fillColor=#fff2cc;strokeColor=#d6b656;" parent="1" vertex="1">
          <mxGeometry x="240" y="1200" width="680" height="40" as="geometry" />
        </mxCell>
        <mxCell id="2krsFsjBcK18qtd2ILgW-1" style="edgeStyle=orthogonalEdgeStyle;rounded=0;orthogonalLoop=1;jettySize=auto;html=1;" edge="1" parent="1" source="7zzRHOXIroybPSx4t4YR-7" target="7zzRHOXIroybPSx4t4YR-15">
          <mxGeometry relative="1" as="geometry" />
        </mxCell>
        <mxCell id="4SoNAwPLv0iioXlWI00t-7" style="edgeStyle=orthogonalEdgeStyle;rounded=0;orthogonalLoop=1;jettySize=auto;html=1;" edge="1" parent="1" source="7zzRHOXIroybPSx4t4YR-7" target="7zzRHOXIroybPSx4t4YR-42">
          <mxGeometry relative="1" as="geometry">
            <Array as="points">
              <mxPoint x="460" y="1500" />
              <mxPoint x="860" y="1500" />
            </Array>
          </mxGeometry>
        </mxCell>
        <mxCell id="7zzRHOXIroybPSx4t4YR-7" value="cfs_analysis_type" style="rounded=1;whiteSpace=wrap;html=1;fillColor=#f5f5f5;fontColor=#333333;strokeColor=#666666;" parent="1" vertex="1">
          <mxGeometry x="400" y="1320" width="120" height="40" as="geometry" />
        </mxCell>
        <mxCell id="7zzRHOXIroybPSx4t4YR-8" value="DimNames" style="rounded=1;whiteSpace=wrap;html=1;fillColor=#ffe6cc;strokeColor=#000000;gradientColor=light-dark(#E1D5E7,#EDEDED);gradientDirection=east;" parent="1" vertex="1">
          <mxGeometry x="80" y="1280" width="120" height="40" as="geometry" />
        </mxCell>
        <mxCell id="7zzRHOXIroybPSx4t4YR-9" value="AnalysisType" style="rounded=1;whiteSpace=wrap;html=1;fillColor=#ffe6cc;strokeColor=#d79b00;" parent="1" vertex="1">
          <mxGeometry x="400" y="1280" width="120" height="40" as="geometry" />
        </mxCell>
        <mxCell id="7zzRHOXIroybPSx4t4YR-10" value="IsComplex" style="rounded=1;whiteSpace=wrap;html=1;fillColor=#ffe6cc;strokeColor=#000000;gradientColor=#E1D5E7;gradientDirection=east;" parent="1" vertex="1">
          <mxGeometry x="240" y="1280" width="120" height="40" as="geometry" />
        </mxCell>
        <mxCell id="4SoNAwPLv0iioXlWI00t-1" style="edgeStyle=orthogonalEdgeStyle;rounded=0;orthogonalLoop=1;jettySize=auto;html=1;" edge="1" parent="1" source="7zzRHOXIroybPSx4t4YR-13" target="7zzRHOXIroybPSx4t4YR-42">
          <mxGeometry relative="1" as="geometry">
            <Array as="points">
              <mxPoint x="140" y="1500" />
              <mxPoint x="860" y="1500" />
            </Array>
          </mxGeometry>
        </mxCell>
        <mxCell id="7zzRHOXIroybPSx4t4YR-13" value="List[str]" style="rounded=1;whiteSpace=wrap;html=1;fillColor=#f5f5f5;fontColor=#333333;strokeColor=#666666;" parent="1" vertex="1">
          <mxGeometry x="80" y="1320" width="120" height="40" as="geometry" />
        </mxCell>
        <mxCell id="4SoNAwPLv0iioXlWI00t-8" style="edgeStyle=orthogonalEdgeStyle;rounded=0;orthogonalLoop=1;jettySize=auto;html=1;" edge="1" parent="1" source="7zzRHOXIroybPSx4t4YR-15" target="7zzRHOXIroybPSx4t4YR-42">
          <mxGeometry relative="1" as="geometry">
            <Array as="points">
              <mxPoint x="300" y="1500" />
              <mxPoint x="860" y="1500" />
            </Array>
          </mxGeometry>
        </mxCell>
        <mxCell id="7zzRHOXIroybPSx4t4YR-15" value="bool" style="rounded=1;whiteSpace=wrap;html=1;fillColor=#f5f5f5;fontColor=#333333;strokeColor=#666666;" parent="1" vertex="1">
          <mxGeometry x="240" y="1320" width="120" height="40" as="geometry" />
        </mxCell>
        <mxCell id="7zzRHOXIroybPSx4t4YR-22" value="Inheritage" style="edgeStyle=orthogonalEdgeStyle;rounded=0;orthogonalLoop=1;jettySize=auto;html=1;exitX=0.5;exitY=0;exitDx=0;exitDy=0;entryX=0.5;entryY=0;entryDx=0;entryDy=0;dashed=1;" parent="1" source="7zzRHOXIroybPSx4t4YR-21" target="7zzRHOXIroybPSx4t4YR-6" edge="1">
          <mxGeometry x="-0.1818" relative="1" as="geometry">
            <mxPoint as="offset" />
          </mxGeometry>
        </mxCell>
        <mxCell id="7zzRHOXIroybPSx4t4YR-21" value="numpy.ndarray" style="rounded=1;whiteSpace=wrap;html=1;fillColor=#f5f5f5;fontColor=#333333;strokeColor=#666666;" parent="1" vertex="1">
          <mxGeometry x="80" y="1200" width="120" height="40" as="geometry" />
        </mxCell>
        <mxCell id="7zzRHOXIroybPSx4t4YR-23" value="MultiStepID" style="rounded=1;whiteSpace=wrap;html=1;fillColor=#ffe6cc;strokeColor=#d79b00;" parent="1" vertex="1">
          <mxGeometry x="560" y="1280" width="120" height="40" as="geometry" />
        </mxCell>
        <mxCell id="4SoNAwPLv0iioXlWI00t-5" style="edgeStyle=orthogonalEdgeStyle;rounded=0;orthogonalLoop=1;jettySize=auto;html=1;" edge="1" parent="1" source="7zzRHOXIroybPSx4t4YR-24" target="7zzRHOXIroybPSx4t4YR-42">
          <mxGeometry relative="1" as="geometry">
            <Array as="points">
              <mxPoint x="620" y="1500" />
              <mxPoint x="860" y="1500" />
            </Array>
          </mxGeometry>
        </mxCell>
        <mxCell id="7zzRHOXIroybPSx4t4YR-24" value="int" style="rounded=1;whiteSpace=wrap;html=1;fillColor=#f5f5f5;fontColor=#333333;strokeColor=#666666;" parent="1" vertex="1">
          <mxGeometry x="560" y="1320" width="120" height="40" as="geometry" />
        </mxCell>
        <mxCell id="7zzRHOXIroybPSx4t4YR-25" value="Quantity" style="rounded=1;whiteSpace=wrap;html=1;fillColor=#ffe6cc;strokeColor=#d79b00;" parent="1" vertex="1">
          <mxGeometry x="720" y="1280" width="120" height="40" as="geometry" />
        </mxCell>
        <mxCell id="4SoNAwPLv0iioXlWI00t-6" style="edgeStyle=orthogonalEdgeStyle;rounded=0;orthogonalLoop=1;jettySize=auto;html=1;" edge="1" parent="1" source="7zzRHOXIroybPSx4t4YR-26" target="7zzRHOXIroybPSx4t4YR-42">
          <mxGeometry relative="1" as="geometry">
            <Array as="points">
              <mxPoint x="780" y="1500" />
              <mxPoint x="860" y="1500" />
            </Array>
          </mxGeometry>
        </mxCell>
        <mxCell id="7zzRHOXIroybPSx4t4YR-26" value="str" style="rounded=1;whiteSpace=wrap;html=1;fillColor=#f5f5f5;fontColor=#333333;strokeColor=#666666;" parent="1" vertex="1">
          <mxGeometry x="720" y="1320" width="120" height="40" as="geometry" />
        </mxCell>
        <mxCell id="7zzRHOXIroybPSx4t4YR-33" value="Region" style="rounded=1;whiteSpace=wrap;html=1;fillColor=#ffe6cc;strokeColor=#d79b00;" parent="1" vertex="1">
          <mxGeometry x="880" y="1280" width="120" height="40" as="geometry" />
        </mxCell>
        <mxCell id="4SoNAwPLv0iioXlWI00t-2" style="edgeStyle=orthogonalEdgeStyle;rounded=0;orthogonalLoop=1;jettySize=auto;html=1;" edge="1" parent="1" source="7zzRHOXIroybPSx4t4YR-34" target="7zzRHOXIroybPSx4t4YR-42">
          <mxGeometry relative="1" as="geometry">
            <Array as="points">
              <mxPoint x="220" y="1500" />
              <mxPoint x="860" y="1500" />
            </Array>
          </mxGeometry>
        </mxCell>
        <mxCell id="7zzRHOXIroybPSx4t4YR-34" value="cfs_analysis_type" style="rounded=1;whiteSpace=wrap;html=1;fillColor=#f5f5f5;fontColor=#333333;strokeColor=#666666;" parent="1" vertex="1">
          <mxGeometry x="880" y="1320" width="120" height="40" as="geometry" />
        </mxCell>
        <mxCell id="7zzRHOXIroybPSx4t4YR-35" value="ResType" style="rounded=1;whiteSpace=wrap;html=1;fillColor=#ffe6cc;strokeColor=#d79b00;" parent="1" vertex="1">
          <mxGeometry x="160" y="1400" width="120" height="40" as="geometry" />
        </mxCell>
        <mxCell id="4SoNAwPLv0iioXlWI00t-3" style="edgeStyle=orthogonalEdgeStyle;rounded=0;orthogonalLoop=1;jettySize=auto;html=1;" edge="1" parent="1" source="7zzRHOXIroybPSx4t4YR-36" target="7zzRHOXIroybPSx4t4YR-42">
          <mxGeometry relative="1" as="geometry">
            <Array as="points">
              <mxPoint x="380" y="1500" />
              <mxPoint x="860" y="1500" />
            </Array>
          </mxGeometry>
        </mxCell>
        <mxCell id="7zzRHOXIroybPSx4t4YR-36" value="cfs_result_type" style="rounded=1;whiteSpace=wrap;html=1;fillColor=#f5f5f5;fontColor=#333333;strokeColor=#666666;" parent="1" vertex="1">
          <mxGeometry x="160" y="1440" width="120" height="40" as="geometry" />
        </mxCell>
        <mxCell id="7zzRHOXIroybPSx4t4YR-37" value="StepValues" style="rounded=1;whiteSpace=wrap;html=1;fillColor=#ffe6cc;strokeColor=#d79b00;" parent="1" vertex="1">
          <mxGeometry x="320" y="1400" width="120" height="40" as="geometry" />
        </mxCell>
        <mxCell id="4SoNAwPLv0iioXlWI00t-4" style="edgeStyle=orthogonalEdgeStyle;rounded=0;orthogonalLoop=1;jettySize=auto;html=1;" edge="1" parent="1" source="7zzRHOXIroybPSx4t4YR-38" target="7zzRHOXIroybPSx4t4YR-42">
          <mxGeometry relative="1" as="geometry">
            <Array as="points">
              <mxPoint x="380" y="1500" />
              <mxPoint x="700" y="1500" />
            </Array>
          </mxGeometry>
        </mxCell>
        <mxCell id="4SoNAwPLv0iioXlWI00t-10" style="edgeStyle=orthogonalEdgeStyle;rounded=0;orthogonalLoop=1;jettySize=auto;html=1;" edge="1" parent="1" source="7zzRHOXIroybPSx4t4YR-38" target="7zzRHOXIroybPSx4t4YR-40">
          <mxGeometry relative="1" as="geometry">
            <Array as="points">
              <mxPoint x="540" y="1500" />
              <mxPoint x="700" y="1500" />
            </Array>
          </mxGeometry>
        </mxCell>
        <mxCell id="7zzRHOXIroybPSx4t4YR-38" value="numpy.ndarray" style="rounded=1;whiteSpace=wrap;html=1;fillColor=#f5f5f5;fontColor=#333333;strokeColor=#666666;" parent="1" vertex="1">
          <mxGeometry x="320" y="1440" width="120" height="40" as="geometry" />
        </mxCell>
        <mxCell id="7zzRHOXIroybPSx4t4YR-39" value="ResultInfo" style="rounded=1;whiteSpace=wrap;html=1;fillColor=#e1d5e7;strokeColor=#9673a6;" parent="1" vertex="1">
          <mxGeometry x="480" y="1400" width="120" height="40" as="geometry" />
        </mxCell>
        <mxCell id="7zzRHOXIroybPSx4t4YR-40" value="CFSResultInfo" style="rounded=1;whiteSpace=wrap;html=1;fillColor=#f5f5f5;fontColor=#333333;strokeColor=#666666;" parent="1" vertex="1">
          <mxGeometry x="480" y="1440" width="120" height="40" as="geometry" />
        </mxCell>
        <mxCell id="7zzRHOXIroybPSx4t4YR-41" value="MetaData" style="rounded=1;whiteSpace=wrap;html=1;fillColor=#e1d5e7;strokeColor=#9673a6;" parent="1" vertex="1">
          <mxGeometry x="640" y="1400" width="120" height="40" as="geometry" />
        </mxCell>
        <mxCell id="7zzRHOXIroybPSx4t4YR-42" value="dict" style="rounded=1;whiteSpace=wrap;html=1;fillColor=#f5f5f5;fontColor=#333333;strokeColor=#666666;" parent="1" vertex="1">
          <mxGeometry x="640" y="1440" width="120" height="40" as="geometry" />
        </mxCell>
        <mxCell id="nPS9NGVsApgSVucQxBJS-1" value="IsHistory" style="rounded=1;whiteSpace=wrap;html=1;fillColor=#e1d5e7;strokeColor=#9673a6;" parent="1" vertex="1">
          <mxGeometry x="960" y="1400" width="120" height="40" as="geometry" />
        </mxCell>
        <mxCell id="nPS9NGVsApgSVucQxBJS-2" value="bool" style="rounded=1;whiteSpace=wrap;html=1;fillColor=#f5f5f5;fontColor=#333333;strokeColor=#666666;" parent="1" vertex="1">
          <mxGeometry x="960" y="1440" width="120" height="40" as="geometry" />
        </mxCell>
        <mxCell id="nPS9NGVsApgSVucQxBJS-4" value="DataArray" style="rounded=1;whiteSpace=wrap;html=1;fillColor=#e1d5e7;strokeColor=#9673a6;" parent="1" vertex="1">
          <mxGeometry x="800" y="1400" width="120" height="40" as="geometry" />
        </mxCell>
        <mxCell id="nPS9NGVsApgSVucQxBJS-5" value="numpy.ndarray" style="rounded=1;whiteSpace=wrap;html=1;fillColor=#f5f5f5;fontColor=#333333;strokeColor=#666666;" parent="1" vertex="1">
          <mxGeometry x="800" y="1440" width="120" height="40" as="geometry" />
        </mxCell>
      </root>
    </mxGraphModel>
  </diagram>
  <diagram name="Page-6" id="kNyv_fxORjN5FyGAlmfK">
    <mxGraphModel dx="1434" dy="-347" grid="1" gridSize="10" guides="1" tooltips="1" connect="1" arrows="1" fold="1" page="1" pageScale="1" pageWidth="827" pageHeight="1169" math="0" shadow="0">
      <root>
        <mxCell id="0" />
        <mxCell id="1" parent="0" />
        <mxCell id="uLYA5za88xOzGnQeQRGK-1" style="edgeStyle=orthogonalEdgeStyle;rounded=0;orthogonalLoop=1;jettySize=auto;html=1;exitX=0.5;exitY=1;exitDx=0;exitDy=0;entryX=0.5;entryY=0;entryDx=0;entryDy=0;" edge="1" parent="1" source="uLYA5za88xOzGnQeQRGK-11" target="uLYA5za88xOzGnQeQRGK-24">
          <mxGeometry relative="1" as="geometry">
            <Array as="points">
              <mxPoint x="500" y="1260" />
              <mxPoint x="220" y="1260" />
            </Array>
          </mxGeometry>
        </mxCell>
        <mxCell id="uLYA5za88xOzGnQeQRGK-2" style="edgeStyle=orthogonalEdgeStyle;rounded=0;orthogonalLoop=1;jettySize=auto;html=1;exitX=0.5;exitY=1;exitDx=0;exitDy=0;entryX=0.5;entryY=0;entryDx=0;entryDy=0;" edge="1" parent="1" source="uLYA5za88xOzGnQeQRGK-11" target="uLYA5za88xOzGnQeQRGK-26">
          <mxGeometry relative="1" as="geometry">
            <Array as="points">
              <mxPoint x="500" y="1260" />
              <mxPoint x="380" y="1260" />
            </Array>
          </mxGeometry>
        </mxCell>
        <mxCell id="uLYA5za88xOzGnQeQRGK-3" style="edgeStyle=orthogonalEdgeStyle;rounded=0;orthogonalLoop=1;jettySize=auto;html=1;exitX=0.5;exitY=1;exitDx=0;exitDy=0;entryX=0.5;entryY=0;entryDx=0;entryDy=0;" edge="1" parent="1" source="uLYA5za88xOzGnQeQRGK-11" target="uLYA5za88xOzGnQeQRGK-28">
          <mxGeometry relative="1" as="geometry">
            <Array as="points">
              <mxPoint x="500" y="1260" />
              <mxPoint x="540" y="1260" />
            </Array>
          </mxGeometry>
        </mxCell>
        <mxCell id="uLYA5za88xOzGnQeQRGK-4" style="edgeStyle=orthogonalEdgeStyle;rounded=0;orthogonalLoop=1;jettySize=auto;html=1;exitX=0.5;exitY=1;exitDx=0;exitDy=0;entryX=0.5;entryY=0;entryDx=0;entryDy=0;" edge="1" parent="1" source="uLYA5za88xOzGnQeQRGK-11" target="uLYA5za88xOzGnQeQRGK-30">
          <mxGeometry relative="1" as="geometry">
            <Array as="points">
              <mxPoint x="500" y="1260" />
              <mxPoint x="700" y="1260" />
            </Array>
          </mxGeometry>
        </mxCell>
        <mxCell id="uLYA5za88xOzGnQeQRGK-6" style="edgeStyle=orthogonalEdgeStyle;rounded=0;orthogonalLoop=1;jettySize=auto;html=1;exitX=0.5;exitY=1;exitDx=0;exitDy=0;entryX=0.5;entryY=0;entryDx=0;entryDy=0;" edge="1" parent="1" source="uLYA5za88xOzGnQeQRGK-11" target="uLYA5za88xOzGnQeQRGK-14">
          <mxGeometry relative="1" as="geometry" />
        </mxCell>
        <mxCell id="uLYA5za88xOzGnQeQRGK-7" style="edgeStyle=orthogonalEdgeStyle;rounded=0;orthogonalLoop=1;jettySize=auto;html=1;exitX=0.5;exitY=1;exitDx=0;exitDy=0;entryX=0.5;entryY=0;entryDx=0;entryDy=0;" edge="1" parent="1" source="uLYA5za88xOzGnQeQRGK-11" target="uLYA5za88xOzGnQeQRGK-13">
          <mxGeometry relative="1" as="geometry" />
        </mxCell>
        <mxCell id="uLYA5za88xOzGnQeQRGK-8" style="edgeStyle=orthogonalEdgeStyle;rounded=0;orthogonalLoop=1;jettySize=auto;html=1;exitX=0.5;exitY=1;exitDx=0;exitDy=0;entryX=0.5;entryY=0;entryDx=0;entryDy=0;" edge="1" parent="1" source="uLYA5za88xOzGnQeQRGK-11" target="uLYA5za88xOzGnQeQRGK-15">
          <mxGeometry relative="1" as="geometry" />
        </mxCell>
        <mxCell id="uLYA5za88xOzGnQeQRGK-9" style="edgeStyle=orthogonalEdgeStyle;rounded=0;orthogonalLoop=1;jettySize=auto;html=1;exitX=0.5;exitY=1;exitDx=0;exitDy=0;entryX=0.5;entryY=0;entryDx=0;entryDy=0;" edge="1" parent="1" source="uLYA5za88xOzGnQeQRGK-11" target="uLYA5za88xOzGnQeQRGK-20">
          <mxGeometry relative="1" as="geometry" />
        </mxCell>
        <mxCell id="uLYA5za88xOzGnQeQRGK-10" style="edgeStyle=orthogonalEdgeStyle;rounded=0;orthogonalLoop=1;jettySize=auto;html=1;exitX=0.5;exitY=1;exitDx=0;exitDy=0;entryX=0.5;entryY=0;entryDx=0;entryDy=0;" edge="1" parent="1" source="uLYA5za88xOzGnQeQRGK-11" target="uLYA5za88xOzGnQeQRGK-22">
          <mxGeometry relative="1" as="geometry" />
        </mxCell>
        <mxCell id="lZB5R4usR6lHZ67oULR3-3" style="edgeStyle=orthogonalEdgeStyle;rounded=0;orthogonalLoop=1;jettySize=auto;html=1;exitX=0.5;exitY=1;exitDx=0;exitDy=0;entryX=0.5;entryY=0;entryDx=0;entryDy=0;" edge="1" parent="1" source="uLYA5za88xOzGnQeQRGK-11" target="lZB5R4usR6lHZ67oULR3-1">
          <mxGeometry relative="1" as="geometry">
            <Array as="points">
              <mxPoint x="500" y="1260" />
              <mxPoint x="860" y="1260" />
            </Array>
          </mxGeometry>
        </mxCell>
        <mxCell id="uLYA5za88xOzGnQeQRGK-11" value="CFSResultInfo object" style="rounded=1;whiteSpace=wrap;html=1;fillColor=#fff2cc;strokeColor=#d6b656;" vertex="1" parent="1">
          <mxGeometry x="80" y="1200" width="840" height="40" as="geometry" />
        </mxCell>
        <mxCell id="uLYA5za88xOzGnQeQRGK-12" value="cfs_analysis_type" style="rounded=1;whiteSpace=wrap;html=1;fillColor=#f5f5f5;fontColor=#333333;strokeColor=#666666;" vertex="1" parent="1">
          <mxGeometry x="80" y="1320" width="120" height="40" as="geometry" />
        </mxCell>
        <mxCell id="uLYA5za88xOzGnQeQRGK-13" value="DimNames" style="rounded=1;whiteSpace=wrap;html=1;fillColor=#ffe6cc;strokeColor=#d79b00;" vertex="1" parent="1">
          <mxGeometry x="240" y="1280" width="120" height="40" as="geometry" />
        </mxCell>
        <mxCell id="uLYA5za88xOzGnQeQRGK-14" value="AnalysisType" style="rounded=1;whiteSpace=wrap;html=1;fillColor=#ffe6cc;strokeColor=#d79b00;" vertex="1" parent="1">
          <mxGeometry x="80" y="1280" width="120" height="40" as="geometry" />
        </mxCell>
        <mxCell id="uLYA5za88xOzGnQeQRGK-15" value="IsComplex" style="rounded=1;whiteSpace=wrap;html=1;fillColor=#ffe6cc;strokeColor=#d79b00;" vertex="1" parent="1">
          <mxGeometry x="400" y="1280" width="120" height="40" as="geometry" />
        </mxCell>
        <mxCell id="uLYA5za88xOzGnQeQRGK-16" value="List[str]" style="rounded=1;whiteSpace=wrap;html=1;fillColor=#f5f5f5;fontColor=#333333;strokeColor=#666666;" vertex="1" parent="1">
          <mxGeometry x="240" y="1320" width="120" height="40" as="geometry" />
        </mxCell>
        <mxCell id="uLYA5za88xOzGnQeQRGK-17" value="bool" style="rounded=1;whiteSpace=wrap;html=1;fillColor=#f5f5f5;fontColor=#333333;strokeColor=#666666;" vertex="1" parent="1">
          <mxGeometry x="400" y="1320" width="120" height="40" as="geometry" />
        </mxCell>
        <mxCell id="uLYA5za88xOzGnQeQRGK-20" value="MultiStepID" style="rounded=1;whiteSpace=wrap;html=1;fillColor=#ffe6cc;strokeColor=#d79b00;" vertex="1" parent="1">
          <mxGeometry x="560" y="1280" width="120" height="40" as="geometry" />
        </mxCell>
        <mxCell id="uLYA5za88xOzGnQeQRGK-21" value="int" style="rounded=1;whiteSpace=wrap;html=1;fillColor=#f5f5f5;fontColor=#333333;strokeColor=#666666;" vertex="1" parent="1">
          <mxGeometry x="560" y="1320" width="120" height="40" as="geometry" />
        </mxCell>
        <mxCell id="uLYA5za88xOzGnQeQRGK-22" value="Quantity" style="rounded=1;whiteSpace=wrap;html=1;fillColor=#ffe6cc;strokeColor=#d79b00;" vertex="1" parent="1">
          <mxGeometry x="720" y="1280" width="120" height="40" as="geometry" />
        </mxCell>
        <mxCell id="uLYA5za88xOzGnQeQRGK-23" value="str" style="rounded=1;whiteSpace=wrap;html=1;fillColor=#f5f5f5;fontColor=#333333;strokeColor=#666666;" vertex="1" parent="1">
          <mxGeometry x="720" y="1320" width="120" height="40" as="geometry" />
        </mxCell>
        <mxCell id="uLYA5za88xOzGnQeQRGK-24" value="Region" style="rounded=1;whiteSpace=wrap;html=1;fillColor=#ffe6cc;strokeColor=#d79b00;" vertex="1" parent="1">
          <mxGeometry x="160" y="1400" width="120" height="40" as="geometry" />
        </mxCell>
        <mxCell id="uLYA5za88xOzGnQeQRGK-25" value="cfs_analysis_type" style="rounded=1;whiteSpace=wrap;html=1;fillColor=#f5f5f5;fontColor=#333333;strokeColor=#666666;" vertex="1" parent="1">
          <mxGeometry x="160" y="1440" width="120" height="40" as="geometry" />
        </mxCell>
        <mxCell id="uLYA5za88xOzGnQeQRGK-26" value="ResType" style="rounded=1;whiteSpace=wrap;html=1;fillColor=#ffe6cc;strokeColor=#d79b00;" vertex="1" parent="1">
          <mxGeometry x="320" y="1400" width="120" height="40" as="geometry" />
        </mxCell>
        <mxCell id="uLYA5za88xOzGnQeQRGK-27" value="cfs_result_type" style="rounded=1;whiteSpace=wrap;html=1;fillColor=#f5f5f5;fontColor=#333333;strokeColor=#666666;" vertex="1" parent="1">
          <mxGeometry x="320" y="1440" width="120" height="40" as="geometry" />
        </mxCell>
        <mxCell id="uLYA5za88xOzGnQeQRGK-28" value="StepValues" style="rounded=1;whiteSpace=wrap;html=1;fillColor=#ffe6cc;strokeColor=#d79b00;" vertex="1" parent="1">
          <mxGeometry x="480" y="1400" width="120" height="40" as="geometry" />
        </mxCell>
        <mxCell id="uLYA5za88xOzGnQeQRGK-29" value="numpy.ndarray" style="rounded=1;whiteSpace=wrap;html=1;fillColor=#f5f5f5;fontColor=#333333;strokeColor=#666666;" vertex="1" parent="1">
          <mxGeometry x="480" y="1440" width="120" height="40" as="geometry" />
        </mxCell>
        <mxCell id="uLYA5za88xOzGnQeQRGK-30" value="DataShape" style="rounded=1;whiteSpace=wrap;html=1;fillColor=#ffe6cc;strokeColor=#d79b00;" vertex="1" parent="1">
          <mxGeometry x="640" y="1400" width="120" height="40" as="geometry" />
        </mxCell>
        <mxCell id="uLYA5za88xOzGnQeQRGK-31" value="tuple" style="rounded=1;whiteSpace=wrap;html=1;fillColor=#f5f5f5;fontColor=#333333;strokeColor=#666666;" vertex="1" parent="1">
          <mxGeometry x="640" y="1440" width="120" height="40" as="geometry" />
        </mxCell>
        <mxCell id="lZB5R4usR6lHZ67oULR3-1" value="MetaData" style="rounded=1;whiteSpace=wrap;html=1;fillColor=#e1d5e7;strokeColor=#9673a6;" vertex="1" parent="1">
          <mxGeometry x="800" y="1400" width="120" height="40" as="geometry" />
        </mxCell>
        <mxCell id="lZB5R4usR6lHZ67oULR3-2" value="dict" style="rounded=1;whiteSpace=wrap;html=1;fillColor=#f5f5f5;fontColor=#333333;strokeColor=#666666;" vertex="1" parent="1">
          <mxGeometry x="800" y="1440" width="120" height="40" as="geometry" />
        </mxCell>
      </root>
    </mxGraphModel>
  </diagram>
</mxfile>
